<?xml version="1.0" standalone="no"?><!DOCTYPE svg PUBLIC "-//W3C//DTD SVG 1.1//EN" "http://www.w3.org/Graphics/SVG/1.1/DTD/svg11.dtd"><svg t="1637465144062" class="icon" viewBox="0 0 1024 1024" version="1.1" xmlns="http://www.w3.org/2000/svg" p-id="1491" xmlns:xlink="http://www.w3.org/1999/xlink" width="200" height="200"><defs><style type="text/css"></style></defs><path d="M689.39776 654.0288l36.7104 36.7104-18.35008 18.35008-18.36032 18.35008-36.70016-36.70016 18.35008-18.36032zM741.02784 705.65888l-18.35008 18.35008-18.36032 18.36032 221.25568 221.24544 36.7104-36.70016z" fill="#d81e06" p-id="1492"></path><path d="M906.3424 512.93184V158.2592l-4.2496-0.3072C608.48128 136.6528 516.41344 30.85312 515.51232 29.7984L512 25.62048l-3.50208 4.17792c-0.89088 1.06496-92.96896 106.86464-386.58048 128.1536l-4.2496 0.3072 0.01024 354.41664c-0.21504 3.87072-17.09056 388.27008 392.86784 484.9152l2.38592 0.12288 0.52224-0.12288c109.74208-25.86624 198.83008-74.58816 264.8064-144.77312l3.04128-3.23584-66.05824-66.05824-3.23584 3.24608c-50.85184 50.98496-118.30272 86.6816-200.04864 105.96352-0.7168-0.16384-1.36192-0.37888-2.06848-0.55296a2103.6032 2103.6032 0 0 0-9.12384-26.34752 239.28832 239.28832 0 0 1 27.61728-10.27072c9.70752-2.92864 19.74272-5.18144 29.51168-5.12l13.94688 0.09216-12.6976-5.87776a518.33856 518.33856 0 0 0-26.01984-11.28448c-8.704-3.66592-17.6128-6.8096-26.55232-9.87136a493.54752 493.54752 0 0 0-27.0848-8.43776c-2.95936-0.93184-5.96992-1.64864-8.98048-2.41664l15.96416-3.38944 34.4064-7.7312 34.4064-7.7312c11.45856-2.63168 22.95808-5.03808 34.37568-7.85408l14.6944-3.62496-14.53056-3.51232-64.26624-15.5136c-5.7856-14.00832-11.48928-28.04736-17.31584-42.0352 1.1264 0.02048 2.23232 0.08192 3.35872 0.08192 114.92352 0 208.41472-93.4912 208.41472-208.40448 0-111.63648-88.23808-203.03872-198.63552-208.16896 2.36544-7.9872 4.7616-15.96416 7.08608-23.9616l0.34816-1.19808-1.23904-0.58368a2134.45632 2134.45632 0 0 0-41.84064-19.11808l-0.96256-0.43008-1.09568 0.37888c-7.61856 2.6112-15.24736 5.1712-22.87616 7.7312 3.13344-2.0992 6.2976-4.16768 9.44128-6.26688 12.72832-8.74496 25.45664-17.46944 37.9392-26.5216l18.688-13.88544c-1.10592-1.13664 4.18816-0.1024 7.46496 0.49152 3.66592 0.72704 7.3728 1.5872 11.07968 2.48832 14.81728 3.65568 29.6448 7.86432 44.34944 12.1856l31.09888 9.13408-28.44672-16.4352c-1.56672-0.90112-3.14368-1.47456-4.77184-2.62144-1.61792-1.03424-3.25632-2.02752-4.83328-3.24608-3.21536-2.27328-6.31808-4.8128-9.43104-7.33184a452.10624 452.10624 0 0 1-18.10432-16.06656 1489.4592 1489.4592 0 0 1-34.51904-33.76128c-2.19136-9.53344-4.43392-19.0464-6.7072-28.55936 20.76672 19.84512 102.58432 83.93728 305.408 99.45088l0.01024 276.54144c0.0512 0.93184 4.608 94.70976-46.01856 190.06464l-1.5872 2.99008 66.36544 66.37568 2.9696-5.2224c71.46496-125.63456 65.20832-253.42976 65.14688-254.45376z m-744.61184 24.04352a24.064 24.064 0 0 1-24.04352-24.04352 24.064 24.064 0 0 1 24.04352-24.04352 24.064 24.064 0 0 1 24.04352 24.04352 24.064 24.064 0 0 1-24.04352 24.04352z m0-315.47392a24.064 24.064 0 0 1-24.04352-24.04352 24.064 24.064 0 0 1 24.04352-24.04352 24.064 24.064 0 0 1 24.04352 24.04352 24.064 24.064 0 0 1-24.04352 24.04352z m84.62336 583.48544a24.064 24.064 0 0 1-24.04352-24.04352 24.064 24.064 0 0 1 24.04352-24.04352 24.064 24.064 0 0 1 24.04352 24.04352 24.08448 24.08448 0 0 1-24.04352 24.04352z m265.87136 116.224a24.064 24.064 0 0 1 24.04352 24.04352 24.064 24.064 0 0 1-24.04352 24.04352 24.064 24.064 0 0 1-24.04352-24.04352 24.08448 24.08448 0 0 1 24.04352-24.04352z m-1.01376-227.35872c-99.59424-0.21504-180.55168-81.28512-180.55168-180.92032 0-97.6896 77.8752-177.34656 174.78656-180.6336l-42.17856 49.24416-16.78336 4.95616s25.94816 6.48192 70.58432 35.87072l-74.97728 125.3376 63.52896 5.72416-47.50336 53.80096s17.74592-4.57728 84.70528 37.77536l-31.61088 48.8448z m181.32992-180.92032c0 98.49856-79.16544 178.71872-177.19296 180.74624 23.53152-21.48352 65.81248-50.40128 65.81248-50.40128h-6.10304l-56.85248-69.82656c9.92256-15.64672 51.12832-30.14656 51.12832-30.14656h-26.5216l-45.78304-20.224c93.85984-100.73088 113.5104-115.98848 113.5104-115.98848l-34.33472 3.4304-69.05856-33.95584 7.79264-44.42112c98.22208 1.82272 177.60256 82.14528 177.60256 180.7872zM517.82656 166.84032l0.06144 0.37888 0.31744 0.37888a662.85568 662.85568 0 0 0 33.04448 36.07552 449.64864 449.64864 0 0 0 17.664 17.09056c0.54272 0.48128 1.1264 0.94208 1.66912 1.42336a844.21632 844.21632 0 0 0-23.12192-6.4512 281.45664 281.45664 0 0 0-11.4176-2.74432c-1.95584-0.39936-3.90144-0.79872-6.02112-1.0752-1.14688-0.11264-2.06848-0.28672-3.87072-0.16384-0.55296 0.11264-0.67584-0.06144-2.06848 0.52224-1.4336 0.73728-1.21856 0.74752-1.47456 0.90112l-1.16736 0.83968-18.59584 13.40416-37.4784 26.85952c-6.30784 4.352-12.60544 8.77568-18.96448 13.0048l-9.5744 6.26688-9.60512 5.62176 3.06176 7.26016c18.20672-6.71744 36.23936-13.93664 54.35392-20.89984 13.47584 5.40672 26.99264 10.72128 40.59136 15.86176-1.69984 7.77216-3.31776 15.5648-4.9664 23.35744a202.05568 202.05568 0 0 0-8.6528-0.21504c-114.92352 0-208.41472 93.4912-208.41472 208.41472 0 113.36704 91.00288 205.81376 203.79648 208.29184 4.89472 14.92992 9.9328 29.81888 14.86848 44.73856l0.34816 1.03424 1.1776 0.33792 50.06336 14.39744c-6.61504 1.3824-13.23008 2.79552-19.85536 4.15744l-34.5088 7.24992-34.5088 7.24992-34.41664 7.64928-18.30912 4.07552 18.33984 4.47488c9.02144 2.2016 18.176 3.85024 27.10528 6.52288 9.00096 2.3552 17.92 5.05856 26.79808 7.936 4.46464 1.3312 8.83712 2.97984 13.25056 4.47488 4.41344 1.49504 8.84736 2.97984 13.21984 4.59776 5.0688 1.78176 10.02496 3.82976 15.03232 5.7856-6.4 1.2288-12.61568 3.03104-18.67776 5.13024-9.86112 3.51232-19.28192 7.8848-28.47744 12.78976l-1.13664 0.60416 0.48128 1.1264c3.79904 8.84736 7.66976 17.67424 11.59168 26.48064-317.7984-77.09696-304.96768-375.82848-304.7936-379.10528V236.6464c210.14528-16.06656 290.4064-84.33664 307.41504-101.44768l1.19808 1.1776c1.49504 10.16832 3.04128 20.31616 4.62848 30.464zM512 113.8176c-13.2608 0-24.04352-10.79296-24.04352-24.04352S498.7392 65.72032 512 65.72032s24.04352 10.79296 24.04352 24.04352-10.78272 24.05376-24.04352 24.05376z m351.51872 423.15776a24.064 24.064 0 0 1-24.04352-24.04352 24.064 24.064 0 0 1 24.04352-24.04352 24.064 24.064 0 0 1 24.04352 24.04352 24.064 24.064 0 0 1-24.04352 24.04352z m0-315.47392a24.064 24.064 0 0 1-24.04352-24.04352 24.064 24.064 0 0 1 24.04352-24.04352 24.064 24.064 0 0 1 24.04352 24.04352 24.064 24.064 0 0 1-24.04352 24.04352z" fill="#d81e06" p-id="1493"></path></svg>